<svg id="Layer_1" data-name="Layer 1" xmlns="http://www.w3.org/2000/svg" viewBox="0 0 63 75.08">
  <title>icon-gift</title>
  <path d="M60.17,22.23H35.76c13.6-6.82,14.69-11.11,14.19-13.52-1.14-3.92-5.6-6.94-9.85-5.34-5.48,2.06-7,10.26-8.51,16.19-1.89-6-3.73-13.65-8-17.52A7.19,7.19,0,0,0,17.9,0c-4,.35-9.65,5.32-7.34,10.85,2.22,5.31,9.54,8.67,14.35,11.35H2.83A2.84,2.84,0,0,0,0,25.06V36.25a2.84,2.84,0,0,0,2.84,2.83h.27v36h57v-36h.1A2.84,2.84,0,0,0,63,36.25V25.06A2.85,2.85,0,0,0,60.17,22.23ZM41.77,5.87c2.07-.31,4.91,1.28,5.18,3.17.39,2.72-3.35,5.19-5,6.34-2.48,1.72-4.85,2.61-7.18,4C35.63,15.75,37.27,6.54,41.77,5.87ZM19.23,15.72C17,14.25,12.79,11.34,12.89,8,13,4.49,18.54,1.55,21.57,4.2c3.8,3.33,5.62,11,7,16.36A68.29,68.29,0,0,1,19.23,15.72Zm5.88,56.43H6V39.08H25.11Zm0-36.06H3V25.23H25.11Zm10,36.06H28.05V25.23h7.06Zm22,0H38.05V39.08H57.13ZM60,36.08H38.05V25.23H60Z" transform="translate(0 0)"/>
</svg>
