<svg xmlns="http://www.w3.org/2000/svg" viewBox="0 0 32 20">
  <defs>
    <style>
      .cls-1 {
        fill: #444545;
      }
    </style>
  </defs>
  <title>icon-cc</title>
  <g id="Слой_2" data-name="Слой 2">
    <g id="Layer_1" data-name="Layer 1">
      <path class="cls-1" d="M29,0H3A3,3,0,0,0,0,3V17a3,3,0,0,0,3,3H29a3,3,0,0,0,3-3V3A3,3,0,0,0,29,0ZM14.4,15.85a8.58,8.58,0,0,1-1.68.16,6,6,0,0,1-2-.32,4.21,4.21,0,0,1-1.65-1A5.13,5.13,0,0,1,8,12.79,8.12,8.12,0,0,1,7.55,10,7.56,7.56,0,0,1,8,7.15,5.2,5.2,0,0,1,9.25,5.3a4.53,4.53,0,0,1,1.68-1A5.86,5.86,0,0,1,12.78,4a9,9,0,0,1,1.68.13,6.07,6.07,0,0,1,1.13.31l-.45,1.92a3.31,3.31,0,0,0-.9-.26A8.27,8.27,0,0,0,13,6a2.76,2.76,0,0,0-2.21,1,4.59,4.59,0,0,0-.84,3,6.27,6.27,0,0,0,.2,1.63,3.51,3.51,0,0,0,.6,1.26,2.78,2.78,0,0,0,1,.81,3.19,3.19,0,0,0,1.4.29,4.55,4.55,0,0,0,1.26-.15,3.71,3.71,0,0,0,.89-.38l.46,1.84A3.48,3.48,0,0,1,14.4,15.85Zm8.7,0a8.59,8.59,0,0,1-1.68.16,6,6,0,0,1-2-.32,4.21,4.21,0,0,1-1.65-1,5.13,5.13,0,0,1-1.13-1.87A8.12,8.12,0,0,1,16.25,10a7.56,7.56,0,0,1,.47-2.85A5.2,5.2,0,0,1,17.94,5.3a4.53,4.53,0,0,1,1.68-1A5.86,5.86,0,0,1,21.47,4a9,9,0,0,1,1.68.13,6,6,0,0,1,1.13.31l-.45,1.92a3.29,3.29,0,0,0-.9-.26A8.28,8.28,0,0,0,21.67,6a2.76,2.76,0,0,0-2.21,1,4.59,4.59,0,0,0-.84,3,6.28,6.28,0,0,0,.2,1.63,3.51,3.51,0,0,0,.6,1.26,2.77,2.77,0,0,0,1,.81,3.19,3.19,0,0,0,1.4.29,4.55,4.55,0,0,0,1.26-.15,3.71,3.71,0,0,0,.89-.38l.46,1.84A3.48,3.48,0,0,1,23.1,15.85Z"/>
    </g>
  </g>
</svg>
