<svg xmlns="http://www.w3.org/2000/svg" viewBox="0 0 22 20">
  <defs>
    <style>
      .cls-1 {
        fill: #b2b2b2;
      }
    </style>
  </defs>
  <title>icon-like</title>
  <g id="Слой_2" data-name="Слой 2">
    <g id="Layer_1" data-name="Layer 1">
      <g id="Page-1">
        <g id="Core">
          <g id="thumb-up">
            <g id="Shape">
              <path class="cls-1" d="M12.38,3.65l-.64,2.93L11.22,9H19.9v2.06L17,18H8V8H8l4.37-4.37M2,10v0M13.2,0,6.6,6.6A1.68,1.68,0,0,0,6,8V18a2,2,0,0,0,2,2h9a2,2,0,0,0,1.8-1.2l3-7.1a1.69,1.69,0,0,0,.1-.7V9H22a2,2,0,0,0-2-2H13.7l1-4.6V2.1A2.1,2.1,0,0,0,14.3,1L13.2,0ZM4,8H0V20H4V8ZM22,9V9Z"/>
            </g>
          </g>
        </g>
      </g>
    </g>
  </g>
</svg>
