<svg xmlns="http://www.w3.org/2000/svg" viewBox="0 0 18 18">
  <defs>
    <style>
      .cls-1 {
        fill: #010101;
      }
    </style>
  </defs>
  <title>icon-tel</title>
  <g id="Слой_2" data-name="Слой 2">
    <g id="Layer_1" data-name="Layer 1">
      <g id="Page-1">
        <g id="Icons-Communication">
          <g id="phone">
            <path id="Shape" class="cls-1" d="M3.6,7.8a15.57,15.57,0,0,0,6.6,6.6l2.2-2.2a.8.8,0,0,1,1-.2,10.45,10.45,0,0,0,3.6.6,1,1,0,0,1,1,1V17a1,1,0,0,1-1,1A17,17,0,0,1,0,1,.94.94,0,0,1,1,0H4.5a.94.94,0,0,1,1,1,11.33,11.33,0,0,0,.6,3.6,1.23,1.23,0,0,1-.2,1L3.6,7.8Z"/>
          </g>
        </g>
      </g>
    </g>
  </g>
</svg>
