<svg id="Layer_1" data-name="Layer 1" xmlns="http://www.w3.org/2000/svg" viewBox="0 0 74.7 72.35">
  <title>icon-house</title>
  <g>
    <path d="M29.5,65.34h16V41.41h-16V65.34Zm13.06-2.94H32.44V44.34H42.57Z"/>
    <path d="M72.62,39.44l2.08-2.08-9.91-9.91V.47H51V13.63L37.35,0,0,37.36l2.08,2.08,7.83-7.83v37.8H6v2.94H69.85V69.41H64.79V31.61Zm-18.71-36h7.94v21.1l-7.94-7.94Zm7.94,66h-49V28.67l24.5-24.5,24.5,24.5Z"/>
    <path d="M29.75,27.21a7.75,7.75,0,1,0,7.75-7.75A7.75,7.75,0,0,0,29.75,27.21Zm7.75-5a5,5,0,1,1-5,5A5,5,0,0,1,37.5,22.24Z"/>
    <rect x="16.91" y="41.41" width="3" height="3.94"/>
    <rect x="22.85" y="41.41" width="3" height="3.94"/>
    <rect x="16.91" y="47.41" width="3" height="3.94"/>
    <rect x="22.85" y="47.41" width="3" height="3.94"/>
    <rect x="48.85" y="41.41" width="3" height="3.94"/>
    <rect x="54.78" y="41.41" width="3" height="3.94"/>
    <rect x="48.85" y="47.41" width="3" height="3.94"/>
    <rect x="54.78" y="47.41" width="3" height="3.94"/>
  </g>
</svg>
