<svg id="Layer_1" data-name="Layer 1" xmlns="http://www.w3.org/2000/svg" viewBox="0 0 186.64 96.43">
  <defs>
    <style>
      .cls-1 {
        fill: #81b3d3;
      }

      .cls-2 {
        fill: #23a9e1;
      }

      .cls-3 {
        fill: #fff;
      }

      .cls-4 {
        fill: #491213;
      }

      .cls-5 {
        fill: #dc6243;
      }

      .cls-6 {
        fill: #f49774;
      }

      .cls-7 {
        fill: #f4b1a4;
      }
    </style>
  </defs>
  <title>logotype-desktop</title>
  <g id="Layer_2" data-name="Layer 2">
    <path class="cls-1" d="M186.64,0H0L80.49,90.47a16.82,16.82,0,0,0,25.67,0Z"/>
    <g>
      <polygon class="cls-2" points="43.24 0.72 92.77 59.07 142.09 1.07 43.24 0.72"/>
      <path class="cls-3" d="M122,17.33l-15.19.08c6-6.93,8.7-6.19,15.19-.08Z"/>
      <path class="cls-3" d="M80.85,22.69h26.68c-2-1.23-6.71-7.06-9.31-4.89-.21.18-7.5-8.85-12.3-4.5-4.18,3.8-6.12-.5-10.86,2.51-5.4,3.57,3.12,5.67,5.78,6.88Z"/>
      <path class="cls-4" d="M93.1,0H42.18V22.48L92.76,84l.34-.42,50.75-60.39V0ZM54.9,1.79h5.46V19L54.9,12.5Zm-.78,9.77-5-5.9V1.79h5Zm19.3-2.71L67.68,1.79h5.74Zm-6.64,3.83L61.18,1.79h5.6ZM61.15,3.44l5.52,10.74A58.16,58.16,0,0,0,61.15,19Zm6.42-.55,5.61,6.9c-1.12.65-2.16,1.3-3.1,1.93s-1.72,1.2-2.51,1.78Zm6.64-.2L79,6.91A48.56,48.56,0,0,0,74.2,9.21Zm5.57,3.89L74.37,1.79h6V6.38ZM98.9,1.79h5l-5,2.44Zm-5.79,0h4.44L93.11,3.85Zm-.94,2-4.24-2h4.24Zm-5.49.53L81.58,1.79h5.09ZM81.11,2.44l4.72,2.31a38.68,38.68,0,0,0-4.72,1.35Zm6.35,0L90.92,4a32,32,0,0,0-3.46.39Zm10.42.06V4.44a33.15,33.15,0,0,0-3.36-.39Zm6.47-.06v3.7a40,40,0,0,0-4.78-1.37Zm.78-.64h5.94l-5.43,4.82-.51-.19V1.79Zm13.55,0h5.6l-5.6,10.88Zm-6.64,0h5.74l-5.74,7Zm-.78.89V9.21a50.83,50.83,0,0,0-4.81-2.27Zm6.64.2v10.5c-.71-.51-1.46-1-2.26-1.56-1-.68-2.16-1.37-3.38-2.06Zm6.42.55V18.68a63.2,63.2,0,0,0-5.48-4.6Zm.78,16V1.79h5.46V13.2l-5.39,6.31Zm6.25-17.65h5V6.46l-5,5.82Zm-83,0V4.73L45.89,1.79ZM61.25,20l.14.13a56.8,56.8,0,0,1,9.21-7.65C75.79,9,83.84,4.9,92.76,5s17.06,4.19,22.35,7.67a60.16,60.16,0,0,1,9.45,7.62l-3.87,4.54c-6.91.95-11.86,6.08-18.6,5-3.4-.56-3.5-2.51-4.47-4.46-.75-1.49-1.94-1.3-3.49-1.91S91.84,21.63,89,22.31c-2.53.59-2.81,4.52-6,4.29-1.69-.12-1.81-2.5-4.24-5.54-6.3-7.57-12.16-6.52-16.25.48L92.76,57.48ZM137.11,5.54V1.79h3.2Z"/>
      <polygon class="cls-2" points="88.75 70.92 92.77 64.42 96.77 70.92 92.77 77.43 88.75 70.92"/>
      <g>
        <path class="cls-3" d="M65.46,32.27a2.81,2.81,0,0,1,.81,2.12c-.06.58-.94,1.55-.27,1.85l2.24-2.83c-.6-.15-5.37-5.85-5.44-6.47l-3.16,1.73c.16.66,1.29,0,1.85,0a2.92,2.92,0,0,1,2,1.15c-1.73,1.45-5.93,5-6.37,5.09-.23,0-1.09-.6-1.1-.06,0,.26.85,1,1,1.21l2.23,2.65c.62-.28-.11-.73.21-1.24s4.9-4.27,6-5.24Z"/>
        <path class="cls-3" d="M60.19,25.29c.44-.1.62.43,1-.06L58.7,22.31c-.37-.44-.84-.92-.71,0,.09.63-6.11,5.66-6.49,5.82s-.76-.42-1.11.1l2.19,2.61c.25.29.48.61.75.88s.21-.67.22-.58c-.09-.51.53-.95.86-1.23A60.6,60.6,0,0,1,60.19,25.29Z"/>
        <path class="cls-3" d="M51.42,24.37a3.22,3.22,0,0,1-4.21-2c-.54-1.83.61-3.76,2.07-4.8s3.59-1,4.37.84a3.61,3.61,0,0,1-.09,2.5c-.16.51-.6,1,.06,1.29l2.58-3.29c-1.05-.63-1.52-1.68-2.3-2.6A5.87,5.87,0,0,0,50.42,14c-2.87-.41-5.57,2.56-5.79,5.24a5.76,5.76,0,0,0,1.25,4c.75,1,1.87,1.62,2.43,2.75a22.52,22.52,0,0,0,3.29-1.26,1.55,1.55,0,0,0-.17-.37Z"/>
        <path class="cls-3" d="M90.72,60.78c-1.15-.77-4-4.69-4.57-5.34L85.82,55a2.21,2.21,0,0,0-.25.19c-.17.14.13.57-.05.86-.79,1.24-5.76,5-6,5.16-.56.38-1.16-.16-1.49.32a45.43,45.43,0,0,0,3,3.58c.48.08.15-.82.21-1A31.55,31.55,0,0,1,84.79,61c.34-.28.69.43.89.72a1.76,1.76,0,0,1,.3,1.57c-.12.37-.72.92-.25,1.17l2.61-3c.25-.29-.57,0-.47-.09a.91.91,0,0,1-1.06,0c-.1-.07-1.09-1.08-1-1.17A4.61,4.61,0,0,1,87.34,59c.86-.21,1.58,1.52,1.71,2.13A3.45,3.45,0,0,1,89,62.86c-.12.39-.49.7,0,.93l2.13-2.92a.71.71,0,0,1-.4-.1C90.59,60.69,90.86,60.85,90.72,60.78Z"/>
        <path class="cls-3" d="M80.5,56.65a5.48,5.48,0,1,0-7.79-1.07,5.42,5.42,0,0,0,7.79,1.07C81.65,55.67,80.4,56.72,80.5,56.65ZM80,51.89a7.45,7.45,0,0,1-3.73,3.67c-1.82.71-3.1-.83-2.36-2.55a7.45,7.45,0,0,1,3.74-3.67c1.85-.74,3.07.85,2.36,2.55C79.65,52.78,80.1,51.72,80,51.89Z"/>
        <path class="cls-3" d="M74.05,42c.47.06.93.55,1.27,0l-2.23-2.64c-.59.27,0,.55-.19,1s-2.56.78-3.18.89a15.82,15.82,0,0,1,1.16-2.84c.54-.44.88.43,1.28-.14l-2.74-3.25c-.31-.37-.56-1-1-.68a8.41,8.41,0,0,1-.09,1.73c-.09.24-.94,3.64-1.93,4.47a21.51,21.51,0,0,1-2.7,2.1c-.54.19-.83-.6-1.22,0l2.49,3c.13.15.6.86.77.89.52.09.06-.89.11-1.09.15-.43,2.5-2.72,3.5-2.86A19.37,19.37,0,0,1,74.05,42Z"/>
      </g>
      <path class="cls-5" d="M67.79,22.87c-4-.17-2.35-4,.39-4.81s8.09,1.72,9.84,3.4c-2.78.85-6.39.73-9.45.87-.23-3.12-1-2-.79.54Z"/>
      <path class="cls-5" d="M77.29,35.42c-8.62-.07-2.79-13.32.14-12.52,3.37,1.07,3,12.62-.14,12.52Z"/>
      <path class="cls-5" d="M83.4,31.09c-.84,2.5-2.36,3-2.19-.07.19-3.5,2.48-2.66,4.93-4,2-1.12,3.14-5.21,6.64-2.77,1.56,1.09,3.35.18,3.85,1.83,0-.08-4.54,10.31-2,10.31-5,0-2.77-5.92-.87-9.9-1.85.88-4.84,6.69-2.38,7.64-1.28,1.69-5.19,3.94-7.23,2.3-1.55-1.25-.69-3.33-.71-5.34Z"/>
      <path class="cls-5" d="M87.5,40.7c-3.49,1-8.12-1.21-2.51-2.34,3.48-.7,7.19.78,2.51,2.34Z"/>
      <path class="cls-5" d="M91.87,40.56c-.74-1.66.56-3.64,2.68-2.2,1.85,1.25-.85,3.11-2.68,2.2Z"/>
      <path class="cls-5" d="M88.93,45.22c-2.41-.75-10.54-.56-5.22-2.76,1.64-.68,10.15.1,5.22,2.76Z"/>
      <path class="cls-5" d="M99.36,48.54c-1.44-1.23-2.89-1.29-4.23,0-1.79-3.29-8.32-2.19-11.37-2.65,1.64,4,14.87,4.78,15.6,2.65Z"/>
      <path class="cls-5" d="M97.46,51c-3.15-.15-6.67-.56-9.65.08,1.86.47,6.4,1.79,2.17,2.92,1.51,2.17,4,2,5.58.13A15.33,15.33,0,0,1,94,53c1.67-.3,3.23-1.27,3.44-2.07Z"/>
      <path class="cls-5" d="M101.06,47.08c-5.29-3.11-4-5.43.35-7.59,2.25-1.13,7.32-5.21,9.45-3.85l-9.8,11.44Z"/>
      <path class="cls-6" d="M97.29,39.81c-4.48-4.6,6.69-4.18,8.49-5.8,1.31.44,10.77-8.28,13.07-7.74-1.66,1.94-5.22,8.14-7.78,8.14-2,0-4-.29-5.47,1.11-2.22,2-5.91,3.09-8.31,4.29Z"/>
      <path class="cls-7" d="M98.76,34.18c-2.45,1.32-4.77-3.91-.54-3.4,2.81.34,5.66-.24,8.35.23a8.66,8.66,0,0,1-7.81,3.17Z"/>
      <g>
        <path class="cls-3" d="M111.39,52.47a5,5,0,0,1,.21,2c-.11.87-1,2.92-2.17,2.34a18.23,18.23,0,0,1-3.19-2.55c.8-.94,1.51-1.75,2.85-1.29.37.12.69,0,.3-.26s-3.11-2-3.26-1.8.53.87.22,1.47a7,7,0,0,1-.93,1.22c-.72-.61-1.92-1.25-1.06-2.26a3.69,3.69,0,0,1,2.1-1.34c.57-.11,1.84.39,2-.22l-3.26-1.56c.18.8-3.35,4.52-4.13,5.46-.11.14-.66.61-.66.8,0,.43.62.1.66.08.49-.18,6.82,5.11,7,5.47s-.22.57,0,.73c0,0,.23.22.25.18.39-.47,4.52-6,5.37-6.22-.79-1.21-1.59-2.43-2.37-3.65C110.69,51.33,111.26,52,111.39,52.47Z"/>
        <path class="cls-3" d="M105.23,59.17c-2.08-1.34-5.6,1.28-6.12,1.53-1,.49-1.79-.54-1.25-1.5a2.77,2.77,0,0,1,2.31-1.29c.28,0,1.35.2,1.46,0s.23-.22,0-.34L99.1,55.86c-.18,1.05-1.38,1.73-2.08,2.44a4.7,4.7,0,0,0-1.52,3.16,3,3,0,0,0,1.68,2.66,3.31,3.31,0,0,0,3.32-.51,19.18,19.18,0,0,1,1.92-1.17c1-.47,2.3-.06,2,1.27A3.6,3.6,0,0,1,102,66,3.29,3.29,0,0,1,100.1,66c-.43-.14-1-.73-1.23-.11l3.48,2.54a2.33,2.33,0,0,1,1.09-1.56,11.68,11.68,0,0,0,2-2.13C106.59,63,107,60.62,105.23,59.17Z"/>
        <path class="cls-3" d="M105.23,59.17c.92.6-.59-.49,0,0Z"/>
        <path class="cls-3" d="M134.46,21.85Z"/>
        <path class="cls-3" d="M141.92,19.64c-.73.73-8.42-2.34-9-2.76-.29-.12-.3-1.32-.71-.83L131,17.51,129.76,19c-.26.31-.54.46,0,.72.84-.42,5.42,7.35,5,8.46-.72.38-6.92-5.06-7.08-5.42-.05-.15.27-1-.21-.94-.23,0-.74.9-.89,1.07L125.66,24c.33.48.52,0,1,0a13.19,13.19,0,0,1,2.24,1.66c-.72,0-2.68.13-2.93.11-.9.11-.42-.66-1-.93l-2.28,2.76-1.33,1.61c-.05.07,0,0,0,.11.33.27.1.17.57,0s6.56,4.93,6.78,5.19c.38.45-.15,1,.41,1.22l1.8-2.18c.09-.11.14-.1,0-.2-.43-.35-.48.21-1,.15s-4.39-3.37-5.89-4.61l8.2-.3c.3,0,1.14.9,1.07,1.22s-.46.56.05.79c.48-.58,1-1.15,1.46-1.73h0l.23-.28a.74.74,0,0,0,.21-.26l.17-.21c.42-.48,1.8-2,1.63-2.15-.46-.4-.68.47-1.3-.05a12.9,12.9,0,0,1-1.44-2.16c-.26-.45.61-.9,1-1.12.78-.48,3.25-1.18,3.48.35,0,.26-.27.55-.08.7s.2.24.27.16l3.3-4A1.47,1.47,0,0,0,141.92,19.64Zm-7.37,2.16h0l-.08.05.08-.05a5.71,5.71,0,0,0-1,.76L132,19.87l3.52,1.48A3.73,3.73,0,0,0,134.55,21.8Z"/>
        <path class="cls-3" d="M124.8,33a5.48,5.48,0,1,0,.59,7.6A5.38,5.38,0,0,0,124.8,33Zm-.28,6.61,0,0c-1.23,1.29-3.36.1-4.5-.73s-3.11-2.57-1.86-4.1c1.06-1.29,3.12-.23,4.19.48s3.41,2.6,2.28,4.22C124.67,39.43,124.73,39.37,124.52,39.63Z"/>
        <path class="cls-3" d="M124.8,33c1.17,1-.25-.21,0,0Z"/>
        <path class="cls-3" d="M124.49,39.65l0,0,.08-.11Z"/>
        <path class="cls-3" d="M118.21,42.14c.11.09.27.22-.06-.06-2.83-2.13-6.19-1.5-8.4,1.16l-3,3.57c.35.51.76-.12,1.27.18s6.24,5.1,6.34,5.37c.16.46-.25.55.14.88A41.39,41.39,0,0,0,119.47,47,4.34,4.34,0,0,0,118.21,42.14Zm-1.32,6.75c-.24.3,0,.05-.66.65-.31.29-6.44-4.68-6.19-4.94a4.35,4.35,0,0,1,3.58-1.3C115.8,43.86,118.82,46.56,116.89,48.89Z"/>
      </g>
    </g>
  </g>
</svg>
